HIERARCHY
ROOT Hips
{
	OFFSET -219.769897 87.409019 450.503113
	CHANNELS 6 Xposition Yposition Zposition Zrotation Yrotation Xrotation 
	JOINT LeftUpLeg
	{
		OFFSET 0.103459 1.857837 10.548508
		CHANNELS 3 Zrotation Yrotation Xrotation
		JOINT LeftLeg
		{
			OFFSET 43.500008 -0.000038 0.000008
			CHANNELS 3 Zrotation Yrotation Xrotation
			JOINT LeftFoot
			{
				OFFSET 42.372196 0.000023 -0.000010
				CHANNELS 3 Zrotation Yrotation Xrotation
				JOINT LeftToe
				{
					OFFSET 17.300007 0.000003 -0.000004
					CHANNELS 3 Zrotation Yrotation Xrotation
					End Site
					{
						OFFSET 0.000000 0.000000 0.000000
					}
				}
			}
		}
	}
	JOINT RightUpLeg
	{
		OFFSET 0.103459 1.857834 -10.548512
		CHANNELS 3 Zrotation Yrotation Xrotation
		JOINT RightLeg
		{
			OFFSET 43.500050 -0.000034 0.000002
			CHANNELS 3 Zrotation Yrotation Xrotation
			JOINT RightFoot
			{
				OFFSET 42.372257 0.000015 0.000013
				CHANNELS 3 Zrotation Yrotation Xrotation
				JOINT RightToe
				{
					OFFSET 17.299990 -0.000006 0.000004
					CHANNELS 3 Zrotation Yrotation Xrotation
					End Site
					{
						OFFSET 0.000000 0.000000 0.000000
					}
				}
			}
		}
	}
	JOINT Spine
	{
		OFFSET 6.901970 -2.603734 0.000004
		CHANNELS 3 Zrotation Yrotation Xrotation
		JOINT Spine1
		{
			OFFSET 12.588094 0.000009 -0.000000
			CHANNELS 3 Zrotation Yrotation Xrotation
			JOINT Spine2
			{
				OFFSET 12.343201 -0.000005 -0.000001
				CHANNELS 3 Zrotation Yrotation Xrotation
				JOINT Neck
				{
					OFFSET 25.832905 0.000011 0.000002
					CHANNELS 3 Zrotation Yrotation Xrotation
					JOINT Head
					{
						OFFSET 11.766597 0.000002 0.000004
						CHANNELS 3 Zrotation Yrotation Xrotation
						End Site
						{
							OFFSET 0.000000 0.000000 0.000000
						}
					}
				}
				JOINT LeftShoulder
				{
					OFFSET 19.745907 -1.480370 6.000103
					CHANNELS 3 Zrotation Yrotation Xrotation
					JOINT LeftArm
					{
						OFFSET 11.284125 -0.000017 -0.000018
						CHANNELS 3 Zrotation Yrotation Xrotation
						JOINT LeftForeArm
						{
							OFFSET 33.000053 0.000005 0.000034
							CHANNELS 3 Zrotation Yrotation Xrotation
							JOINT LeftHand
							{
								OFFSET 25.200001 0.000028 -0.000003
								CHANNELS 3 Zrotation Yrotation Xrotation
								End Site
								{
									OFFSET 0.000000 0.000000 0.000000
								}
							}
						}
					}
				}
				JOINT RightShoulder
				{
					OFFSET 19.746109 -1.480360 -6.000067
					CHANNELS 3 Zrotation Yrotation Xrotation
					JOINT RightArm
					{
						OFFSET 11.284139 0.000001 0.000006
						CHANNELS 3 Zrotation Yrotation Xrotation
						JOINT RightForeArm
						{
							OFFSET 33.000118 0.000020 0.000005
							CHANNELS 3 Zrotation Yrotation Xrotation
							JOINT RightHand
							{
								OFFSET 25.199760 0.000119 0.000422
								CHANNELS 3 Zrotation Yrotation Xrotation
								End Site
								{
									OFFSET 0.000000 0.000000 0.000000
								}
							}
						}
					}
				}
			}
		}
	}
}
MOTION
Frames: 15
Frame Time: 0.033333
26.026770 77.811470 42.264938 91.013036 -9.151408 -117.002903 -169.698454 1.319796 174.217130 -73.224846 6.847946 3.210937 77.994757 -0.955275 5.110265 21.454553 0.003095 0.000001 137.149297 4.420104 -179.710036 -35.341513 -6.371535 5.366431 85.742828 -2.899729 3.771052 21.454563 -0.003103 -0.000014 6.889252 0.289087 -3.821840 3.742528 0.700033 -7.632584 3.427469 0.654200 -7.636641 -1.096930 -19.032976 15.051838 2.511028 -1.382890 6.493211 -121.365932 -85.889533 -60.606905 -41.340229 48.213004 -8.634314 -127.117511 1.306432 3.797096 4.196710 -13.136351 27.420909 -61.158327 89.015827 120.642574 40.885929 -24.151013 -62.409344 -85.234204 2.834037 -2.333611 8.020871 10.293285 -5.301143 
34.061798 77.382408 30.358789 91.172691 -10.421605 -117.213095 -173.184993 1.913800 175.427712 -85.618853 5.830136 -2.162636 83.483421 2.065683 3.282828 21.454543 0.003106 -0.000002 138.926061 4.006702 176.500230 -32.356850 -5.608334 5.931302 86.286702 -3.248640 4.092467 21.454555 -0.003120 -0.000023 7.099850 0.098659 -3.222538 4.178176 0.312349 -6.439457 3.862250 0.273670 -6.441221 1.698116 -19.290951 13.418231 0.363109 -0.781973 5.328494 -112.621145 -86.504469 -69.341050 -37.201896 45.533255 -2.897992 -129.311901 1.055099 3.896546 3.512126 -14.483491 26.161911 -27.147719 89.771000 154.570295 45.995156 -23.596507 -63.750561 -87.065323 1.952314 -2.352946 8.453946 10.545097 -1.058282 
41.589031 76.691139 19.328320 92.889760 -11.090707 -119.976699 177.881622 0.966401 173.407547 -97.527131 4.915188 -6.040318 88.819739 4.544861 3.757250 21.454557 0.003086 0.000002 139.659842 1.642509 -178.355637 -37.620692 -8.437984 0.771534 81.393787 0.931753 5.669127 21.454558 -0.003111 -0.000018 7.776166 0.315088 -1.941880 5.527433 0.721980 -3.866630 5.210098 0.698776 -3.870908 -1.364396 -20.077095 13.125484 2.619059 0.527572 3.722626 -132.779328 -84.149071 -49.230313 -31.279210 46.573216 3.739619 -125.832015 0.846236 3.779621 4.008138 -14.201073 26.761914 -140.667705 86.864058 41.148171 40.917782 -29.479322 -59.917930 -86.622932 2.349105 -2.361077 8.162393 14.503854 -2.337094 
49.195061 74.923119 8.792871 96.158238 -11.253547 -122.875103 165.220760 -2.496802 172.041701 -106.108006 4.583637 -7.508920 94.546675 5.225956 3.564985 21.454550 0.003094 0.000001 138.429739 -3.445999 177.533282 -55.542473 -6.536030 3.232755 75.564227 -0.274283 6.515450 21.454560 -0.003104 -0.000016 8.662287 0.869623 -0.612501 7.303532 1.775996 -1.169139 6.985341 1.769040 -1.179847 -3.809309 -20.046942 12.221204 2.785796 0.129268 2.443436 -151.757801 -80.974112 -30.172508 -20.859683 49.674849 9.940724 -117.259404 0.588802 3.454736 4.672593 -12.636449 29.735881 -167.550278 83.961712 14.137084 29.953706 -38.047337 -50.820514 -83.226948 4.521189 -2.363118 8.265184 17.801599 -4.223136 
56.578812 73.030907 -1.687802 99.283746 -11.268923 -125.011709 150.372352 -5.400892 174.136465 -106.452200 4.118996 -5.574628 96.014442 3.909654 3.387350 21.454550 0.003096 0.000003 139.664323 -5.664199 -179.856489 -71.268072 -4.881653 4.504592 83.664442 -1.787318 5.562032 21.454557 -0.003100 -0.000016 9.626172 1.383713 0.326562 9.251252 2.736805 0.762900 8.932795 2.741498 0.746358 -8.610481 -18.929253 12.182979 5.532770 0.060176 1.928802 -160.402717 -75.827701 -21.466999 -10.090717 52.173933 13.322805 -103.852603 -0.712755 2.969993 4.987886 -13.865411 34.638597 171.960463 77.335404 -6.763181 8.990332 -39.832147 -33.212170 -80.081461 7.348439 -2.422974 9.082024 16.915436 -5.183688 
63.795731 72.197090 -12.615290 101.953803 -10.838354 -126.730185 139.067200 -6.642806 176.813066 -95.192258 3.828753 -3.747036 93.615515 2.358499 -0.289535 21.454555 0.003093 -0.000000 145.655382 -6.488286 -173.858026 -80.767492 -6.342751 5.017357 94.650870 -2.659497 4.171354 21.454560 -0.003106 -0.000017 10.009606 1.870630 0.978802 10.045239 3.649107 2.117449 9.726678 3.661953 2.095376 -10.008247 -21.422502 13.031364 5.936409 1.713048 0.873597 -160.310701 -70.951220 -21.625009 1.524379 52.731331 18.961857 -89.186787 -3.538885 2.516670 5.323969 -15.309871 41.082502 158.098034 74.440429 -21.035921 -7.827638 -40.094351 -16.893107 -82.325042 7.575635 -2.536592 7.442331 14.486350 -11.142272 
71.247757 70.942841 -23.927731 101.731597 -11.761891 -128.179906 133.810209 -6.238496 173.738170 -76.431217 5.245500 -1.959634 90.354735 0.940296 -1.724104 21.454551 0.003097 0.000002 154.042978 -6.412398 -175.086217 -87.751402 -5.214123 7.702067 104.520698 -4.671553 5.575510 21.454563 -0.003121 -0.000018 9.842437 1.407465 1.766182 9.717093 2.661549 3.645272 9.399318 2.683635 3.629166 -7.635957 -22.562915 12.148381 4.781854 3.485478 -0.326346 -154.823217 -70.483495 -27.295198 17.791671 47.316566 34.523495 -85.080900 -4.309600 2.389760 6.919664 -15.424249 36.696414 147.660220 77.308814 -31.488425 -18.718943 -46.931142 -1.019245 -90.918526 2.405909 -2.556144 4.147001 14.496107 -15.827666 
78.937714 70.323120 -35.346611 100.088001 -11.917110 -127.711000 132.914115 -5.041392 170.732668 -53.884261 4.435746 1.853546 83.837403 -2.363905 -4.738031 21.454550 0.003086 -0.000000 160.989225 -5.674799 -174.436939 -93.644912 -4.869960 10.981161 102.230009 -6.743610 5.305624 21.454557 -0.003105 -0.000019 9.000001 0.528429 2.422531 8.006334 0.888142 4.875848 7.689465 0.917687 4.870420 -3.089473 -20.426172 8.906375 3.087156 5.397116 -1.850637 -147.611494 -72.565781 -34.660997 32.959604 35.761631 49.119527 -90.908220 -2.056868 2.489378 7.854281 -15.082376 30.047853 149.725151 80.352108 -29.198642 -24.076815 -50.484479 2.617434 -103.039510 0.114047 -2.938236 0.743585 16.106100 -17.183316 
86.783012 70.209229 -46.865860 99.839471 -12.169128 -124.867087 136.023053 -2.304090 173.736722 -36.076096 1.110669 3.106861 80.494367 -4.419944 -9.299905 21.454557 0.003097 -0.000001 164.842463 -4.327601 -172.546042 -100.917404 -4.242648 9.745293 84.677666 -5.758105 3.556478 21.454548 -0.003107 -0.000014 8.276075 0.044375 2.641597 6.537997 -0.060089 5.281452 6.221365 -0.028107 5.281714 3.278294 -19.472419 5.348930 0.186430 8.443349 -4.506257 -144.385896 -77.296493 -37.788899 45.472114 25.927733 58.926275 -95.685268 -1.251392 2.645422 7.677299 -14.883807 29.228835 153.486987 82.362082 -25.274101 -19.356092 -48.746483 -2.992873 -114.019216 -1.307355 -3.318802 -6.532448 17.549211 -24.417887 
94.333061 69.976013 -57.871609 101.877900 -12.997799 -121.374005 138.805331 -0.037713 176.960612 -33.204661 1.230694 1.778819 78.283892 -3.394463 -8.211831 21.454548 0.003093 0.000002 167.500322 -3.356998 -169.384907 -109.449089 -4.004754 8.884672 85.979726 -4.975873 4.663456 21.454548 -0.003104 -0.000021 8.078019 0.186664 2.340781 6.148345 0.249160 4.688097 5.831399 0.277576 4.686527 9.377386 -19.241669 3.092603 -3.108732 10.288531 -6.320979 -146.949826 -80.397371 -35.068070 54.397519 22.002710 61.661828 -97.025385 -0.957406 2.684523 8.215795 -13.718613 28.511976 165.702479 83.305256 -12.891421 -12.966280 -43.560361 -9.890557 -115.669008 -0.961469 -3.412531 -17.448024 21.622065 -35.265349 
100.747597 69.618271 -67.117432 101.856104 -14.540503 -117.729198 136.931305 2.871096 172.265444 -44.349098 5.733583 4.140621 61.059610 -4.511747 -3.178389 21.454550 0.003084 0.000001 161.795707 -2.062904 -169.239588 -116.328203 -4.171910 13.879093 86.741832 -8.426405 3.875987 21.454551 -0.003108 -0.000017 8.183548 -0.000778 1.590150 6.353026 -0.088569 3.177827 6.035456 -0.069246 3.178312 10.395311 -17.525736 2.863448 -3.496659 9.995832 -5.752076 -146.035469 -79.070306 -36.043520 55.216656 27.240700 57.392003 -94.563873 -1.546402 2.616136 9.240997 -13.079947 28.288451 174.664548 83.309327 -3.838525 -6.664447 -40.561632 -13.105589 -106.677699 0.068410 -3.096003 -18.598638 23.278258 -37.065405 
106.722099 67.499649 -76.667870 100.528603 -16.786843 -114.998092 132.728539 7.031414 176.013770 -64.365777 4.631404 3.190309 64.356160 -1.882547 1.265600 21.454551 0.003087 -0.000002 152.406054 2.532306 -174.570633 -118.968003 -4.213387 15.246521 92.255126 -10.016281 -0.757969 21.454562 -0.003108 -0.000014 8.717278 -0.620931 0.981128 7.411260 -1.303302 1.920685 7.093278 -1.291544 1.928513 6.578732 -15.885452 3.584824 -1.193798 9.102261 -4.592528 -144.778714 -73.068107 -37.550703 41.670202 35.422693 45.747183 -88.084783 -2.307842 2.382011 8.473954 -15.672760 31.126231 165.835723 84.400381 -12.711773 -0.463514 -41.063633 -14.211624 -90.963469 2.603473 -2.571957 -6.602299 18.559007 -31.893787 
112.382896 67.042526 -85.821457 95.698170 -18.699118 -111.201900 132.988687 11.813094 174.884412 -76.449829 3.798595 2.444926 74.735356 -1.022365 2.590265 21.454551 0.003087 -0.000000 140.902745 7.383105 173.596990 -111.139807 -4.037698 11.276511 93.288616 -7.401745 -0.611770 21.454560 -0.003108 -0.000015 8.956975 -2.044785 0.753995 7.881485 -4.136072 1.367962 7.562596 -4.127600 1.392969 4.504914 -14.307675 2.829202 1.417198 9.820207 -4.949217 -159.871902 -68.180704 -22.116573 19.543061 38.418643 29.675601 -81.476090 -6.298342 2.371495 10.524261 -16.340215 30.871557 171.829883 81.157175 -6.771964 1.954475 -38.734303 -26.499303 -66.541069 13.552585 -2.285924 -2.258839 20.039930 -26.477000 
118.540298 67.232651 -94.277168 94.092269 -19.987314 -107.923293 136.946877 11.738601 174.794950 -85.266893 3.128642 3.999232 83.991417 -1.956677 3.879560 21.454553 0.003086 0.000001 135.198773 7.526398 165.782994 -93.475333 -4.877029 8.624772 87.266950 -4.790054 5.086653 21.454560 -0.003100 -0.000019 9.229312 -2.778167 0.870784 8.418065 -5.612180 1.538913 8.098448 -5.602640 1.572891 6.565659 -12.850072 0.729757 1.143491 12.535608 -6.832243 -170.170816 -68.381395 -11.440692 0.806525 41.162944 17.665232 -77.335937 -8.289889 2.332449 11.640115 -16.856652 26.531404 179.187294 80.129006 0.666015 7.038814 -39.854570 -40.729794 -43.941756 14.884113 -1.586929 5.090475 11.351639 -22.644208 
125.235703 67.663147 -101.635498 94.600483 -18.626061 -100.812506 138.311071 8.583993 177.326724 -93.581726 3.848375 8.450924 86.260126 -4.616512 5.999905 21.454555 0.003080 0.000002 134.794739 7.719107 167.357762 -70.539660 -11.184024 1.940464 75.520418 1.384762 8.439144 21.454557 -0.003100 -0.000019 9.231318 -2.541907 -0.122140 8.467580 -5.068070 -0.430406 8.148142 -5.070430 -0.399700 7.178624 -12.889626 0.255597 0.393105 13.056870 -7.457680 -172.847608 -71.682528 -8.694696 -13.067188 46.712552 6.506579 -82.040284 -6.089005 2.381342 7.628181 -16.325523 31.941626 -169.995199 80.298702 11.657046 17.843669 -40.006293 -56.146931 -39.368036 10.875848 -1.199239 7.360877 4.911697 -21.061440 
